<mxfile host="app.diagrams.net" modified="2022-11-15T01:20:12.652Z" agent="5.0 (Windows NT 10.0; Win64; x64) AppleWebKit/537.36 (KHTML, like Gecko) Chrome/107.0.0.0 Safari/537.36 Edg/107.0.1418.42" etag="y8o5xIxxbA3VNYvI2zov" version="20.5.3" type="github">
  <diagram id="kgpKYQtTHZ0yAKxKKP6v" name="Page-1">
    <mxGraphModel dx="1038" dy="579" grid="1" gridSize="10" guides="1" tooltips="1" connect="1" arrows="1" fold="1" page="1" pageScale="1" pageWidth="850" pageHeight="1100" math="0" shadow="0">
      <root>
        <mxCell id="0" />
        <mxCell id="1" parent="0" />
        <mxCell id="aQqlGoW2vEKBI-iJcL_8-1" value="ui" style="shape=umlLifeline;perimeter=lifelinePerimeter;whiteSpace=wrap;html=1;container=1;collapsible=0;recursiveResize=0;outlineConnect=0;" vertex="1" parent="1">
          <mxGeometry x="281" y="10" width="100" height="590" as="geometry" />
        </mxCell>
        <mxCell id="aQqlGoW2vEKBI-iJcL_8-3" value="" style="html=1;points=[];perimeter=orthogonalPerimeter;" vertex="1" parent="aQqlGoW2vEKBI-iJcL_8-1">
          <mxGeometry x="45" y="79" width="10" height="81" as="geometry" />
        </mxCell>
        <mxCell id="aQqlGoW2vEKBI-iJcL_8-6" value="user" style="shape=umlLifeline;perimeter=lifelinePerimeter;whiteSpace=wrap;html=1;container=1;collapsible=0;recursiveResize=0;outlineConnect=0;" vertex="1" parent="1">
          <mxGeometry x="101" y="10" width="100" height="590" as="geometry" />
        </mxCell>
        <mxCell id="aQqlGoW2vEKBI-iJcL_8-31" value="" style="html=1;points=[];perimeter=orthogonalPerimeter;" vertex="1" parent="aQqlGoW2vEKBI-iJcL_8-6">
          <mxGeometry x="45" y="150" width="10" height="20" as="geometry" />
        </mxCell>
        <mxCell id="aQqlGoW2vEKBI-iJcL_8-9" value="데몬 통신 테스터" style="shape=umlLifeline;perimeter=lifelinePerimeter;whiteSpace=wrap;html=1;container=1;collapsible=0;recursiveResize=0;outlineConnect=0;" vertex="1" parent="1">
          <mxGeometry x="461" y="10" width="100" height="590" as="geometry" />
        </mxCell>
        <mxCell id="aQqlGoW2vEKBI-iJcL_8-24" value="" style="html=1;points=[];perimeter=orthogonalPerimeter;" vertex="1" parent="aQqlGoW2vEKBI-iJcL_8-9">
          <mxGeometry x="45" y="94" width="10" height="56" as="geometry" />
        </mxCell>
        <mxCell id="aQqlGoW2vEKBI-iJcL_8-12" value="데몬 sw" style="shape=umlLifeline;perimeter=lifelinePerimeter;whiteSpace=wrap;html=1;container=1;collapsible=0;recursiveResize=0;outlineConnect=0;" vertex="1" parent="1">
          <mxGeometry x="641" y="10" width="100" height="590" as="geometry" />
        </mxCell>
        <mxCell id="aQqlGoW2vEKBI-iJcL_8-26" value="" style="html=1;points=[];perimeter=orthogonalPerimeter;" vertex="1" parent="aQqlGoW2vEKBI-iJcL_8-12">
          <mxGeometry x="45" y="99" width="10" height="20" as="geometry" />
        </mxCell>
        <mxCell id="aQqlGoW2vEKBI-iJcL_8-14" value="버전 요청 버튼 클릭" style="html=1;verticalAlign=bottom;endArrow=block;rounded=0;" edge="1" parent="1" target="aQqlGoW2vEKBI-iJcL_8-1">
          <mxGeometry width="80" relative="1" as="geometry">
            <mxPoint x="150" y="90" as="sourcePoint" />
            <mxPoint x="230" y="90" as="targetPoint" />
          </mxGeometry>
        </mxCell>
        <mxCell id="aQqlGoW2vEKBI-iJcL_8-22" value="데몬 버전 요청 전달" style="html=1;verticalAlign=bottom;endArrow=block;rounded=0;" edge="1" parent="1">
          <mxGeometry width="80" relative="1" as="geometry">
            <mxPoint x="335" y="106" as="sourcePoint" />
            <mxPoint x="510.5" y="106" as="targetPoint" />
          </mxGeometry>
        </mxCell>
        <mxCell id="aQqlGoW2vEKBI-iJcL_8-25" value="데몬 버전 요청" style="html=1;verticalAlign=bottom;endArrow=block;rounded=0;" edge="1" parent="1" target="aQqlGoW2vEKBI-iJcL_8-26">
          <mxGeometry width="80" relative="1" as="geometry">
            <mxPoint x="510" y="112" as="sourcePoint" />
            <mxPoint x="685.5" y="112" as="targetPoint" />
          </mxGeometry>
        </mxCell>
        <mxCell id="aQqlGoW2vEKBI-iJcL_8-27" value="데몬 버전 전달" style="html=1;verticalAlign=bottom;endArrow=block;rounded=0;" edge="1" parent="1">
          <mxGeometry width="80" relative="1" as="geometry">
            <mxPoint x="690" y="138" as="sourcePoint" />
            <mxPoint x="510.5" y="138" as="targetPoint" />
          </mxGeometry>
        </mxCell>
        <mxCell id="aQqlGoW2vEKBI-iJcL_8-29" value="데몬 버전 전달" style="html=1;verticalAlign=bottom;endArrow=block;rounded=0;" edge="1" parent="1">
          <mxGeometry width="80" relative="1" as="geometry">
            <mxPoint x="509.5" y="151" as="sourcePoint" />
            <mxPoint x="330" y="151" as="targetPoint" />
          </mxGeometry>
        </mxCell>
        <mxCell id="aQqlGoW2vEKBI-iJcL_8-30" value="데몬 버전 출력" style="html=1;verticalAlign=bottom;endArrow=block;rounded=0;" edge="1" parent="1">
          <mxGeometry width="80" relative="1" as="geometry">
            <mxPoint x="329.5" y="163" as="sourcePoint" />
            <mxPoint x="150" y="163" as="targetPoint" />
          </mxGeometry>
        </mxCell>
      </root>
    </mxGraphModel>
  </diagram>
</mxfile>
